<?xml version="1.0" encoding="utf-8"?>
<!-- Generator: Adobe Illustrator 23.0.3, SVG Export Plug-In . SVG Version: 6.00 Build 0)  -->
<svg version="1.1" id="Lag_1" xmlns="http://www.w3.org/2000/svg" xmlns:xlink="http://www.w3.org/1999/xlink" x="0px" y="0px"
	 viewBox="0 0 2000 400" style="enable-background:new 0 0 2000 400;" xml:space="preserve">
<style type="text/css">
	.st0{fill:#FF2765;}
</style>
<g transform="translate(0.000000,400.000000) scale(0.100000,-0.100000)">
	<path class="st0" d="M150,1999c0-1037,4-1779,9-1777c5,1,553,493,1219,1091c666,599,1214,1089,1217,1089c4,0,154-132,333-293
		c179-162,339-304,354-317l28-24v370v371l-343,308c-188,169-349,314-358,320c-14,11-152-110-960-836l-944-849l-3,1164l-2,1164H425
		H150V1999z"/>
	<path d="M1190,2924v-856l39,34c22,18,148,130,280,248l240,215v608l1,607h-280h-280V2924z"/>
	<path class="st0" d="M3450,3505v-275h275h275v275v275h-275h-275V3505z"/>
	<path d="M4490,3500v-280h275h275v280v280h-275h-275V3500z"/>
	<path d="M3438,2281l-3-819l-419,374l-419,374l-33-28c-18-15-335-299-703-632l-671-605V583c0-235,4-363,10-363
		c8,0,1217,1073,1365,1211l30,28l693-620c381-340,698-619,705-619c9,0,11,326,9,1440l-2,1440h-280h-280L3438,2281z"/>
	<path class="st0" d="M4488,2271l-3-819l-170,154c-93,84-172,154-175,154s-3-168-2-372l4-373l440-395c243-217,445-396,449-398
		c5-2,9,642,9,1432v1436h-275h-275L4488,2271z"/>
	<path d="M8574,2789c-159-10-347-60-479-127c-204-102-373-285-431-466c-33-103-38-255-10-356c79-289,370-523,747-600
		c333-68,676-16,954,146c95,55,243,200,293,286c176,299,90,662-208,887C9209,2733,8913,2812,8574,2789z M8900,2499
		c244-61,428-235,461-438c12-76-7-178-48-254c-35-66-141-172-217-216c-289-171-687-136-921,82c-83,77-128,148-151,237
		c-42,164,31,339,190,458C8404,2509,8661,2558,8900,2499z"/>
	<path d="M18725,2758c-172-19-360-78-489-154c-94-55-220-173-275-257c-135-207-139-480-10-693c141-232,432-394,780-435
		c191-22,415,4,739,85l165,41l3,363l2,362h-330h-330v-125v-125h150h150v-145v-144l-52-15c-122-35-305-51-421-36
		c-308,38-524,213-568,460c-56,316,245,569,676,570c245,0,485-70,617-181c78-65,78-65,78,136v174l-112,35
		C19235,2756,18965,2785,18725,2758z"/>
	<path d="M10818,2740c-78-14-143-39-205-79c-67-43-103-83-141-155c-22-44-26-64-27-141c0-110,16-146,103-226c68-64,150-106,351-184
		c238-91,326-154,338-243c8-57-2-86-44-133c-59-65-104-84-203-84c-116,0-174,29-280,142c-42,46-81,83-85,83c-14,0-280-101-289-110
		c-14-14,45-109,105-169c141-142,335-208,583-198c189,7,318,52,435,153c173,149,187,414,30,574c-88,90-187,143-431,231
		c-204,73-234,90-258,153c-25,66,61,146,155,146c89,0,189-60,246-147l14-23l140,65c77,36,144,66,150,68c14,5-37,79-92,131
		c-54,52-161,109-248,132C11096,2744,10887,2753,10818,2740z"/>
	<path d="M5380,1995v-735h175h175v320v320h440h440v-320v-320h175h175v735v735h-175h-175v-285v-285h-440h-440v285v285h-175h-175V1995
		z"/>
	<path d="M12210,2605v-125h285h285v-610v-610h175h175v610v610h295h295v125v125h-755h-755V2605z"/>
	<path d="M14380,1995v-735h175h175v735v735h-175h-175V1995z"/>
	<path d="M15450,1995v-735h175h175l2,485l3,485l520-485l519-485h178h178v735v735h-175h-175l-2-504l-3-504l-545,504l-545,504h-152
		h-153V1995z"/>
</g>
</svg>
